<?xml version="1.0" standalone="no"?>
<!DOCTYPE svg PUBLIC "-//W3C//DTD SVG 20010904//EN"
 "http://www.w3.org/TR/2001/REC-SVG-20010904/DTD/svg10.dtd">
<svg version="1.0" xmlns="http://www.w3.org/2000/svg"
 width="500.000000pt" height="500.000000pt" viewBox="0 0 500.000000 500.000000"
 preserveAspectRatio="xMidYMid meet">
<metadata>
Created by potrace 1.13, written by Peter Selinger 2001-2015
</metadata>
<g transform="translate(0.000000,500.000000) scale(0.100000,-0.100000)"
fill="#000000" stroke="none">
<path d="M2130 4484 c-159 -19 -280 -39 -365 -60 -548 -139 -1030 -538 -1190
-987 -58 -162 -78 -279 -78 -457 -1 -301 78 -557 244 -787 l62 -85 -6 -74
c-15 -173 -80 -387 -209 -687 -44 -103 -79 -190 -77 -192 6 -5 213 38 358 75
268 68 595 182 765 267 l69 35 -7 60 c-3 34 -6 116 -6 184 l0 123 -147 -74
c-197 -98 -465 -206 -479 -192 -2 2 7 40 20 83 38 120 83 300 101 403 l16 93
-69 72 c-132 139 -209 271 -255 439 -19 71 -22 106 -21 252 0 155 3 178 27
257 58 189 157 351 286 471 207 191 379 289 632 362 176 51 306 68 509 68 285
-1 515 -53 745 -167 364 -180 600 -458 680 -799 l20 -89 105 -37 c58 -21 138
-54 178 -74 l72 -37 0 67 c0 248 -102 541 -267 772 -255 355 -724 624 -1214
696 -101 15 -428 27 -499 19z"/>
<path d="M3093 2790 c-148 -16 -331 -69 -458 -132 -162 -82 -357 -247 -442
-373 -99 -148 -152 -298 -161 -459 -9 -137 0 -217 34 -326 73 -234 215 -419
437 -569 145 -97 312 -163 502 -197 147 -25 382 -23 551 6 l131 22 51 -26 c81
-41 190 -82 335 -126 133 -40 428 -112 434 -106 2 1 -17 44 -41 94 -84 172
-147 365 -161 497 -7 60 -7 62 38 125 228 329 230 728 4 1065 -87 130 -276
289 -442 372 -230 116 -519 163 -812 133z m298 -906 c69 -41 93 -165 46 -235
-31 -48 -100 -82 -155 -76 -151 16 -208 203 -92 301 18 14 44 29 58 32 15 3
32 7 37 8 18 5 74 -11 106 -30z m-515 1 c46 -27 84 -90 84 -141 -1 -41 -33
-107 -65 -132 -82 -65 -203 -46 -255 40 -27 45 -27 128 1 178 45 79 151 104
235 55z m1021 -4 c42 -30 73 -90 73 -139 -1 -39 -33 -105 -65 -130 -72 -57
-159 -50 -226 17 -58 58 -64 141 -16 211 50 75 161 94 234 41z"/>
</g>
</svg>
